<svg xmlns="http://www.w3.org/2000/svg" viewBox="0 0 200 220" role="img" aria-label="ASCAI logo">
  <defs>
    <linearGradient id="goldGrad" x1="0%" y1="0%" x2="0%" y2="100%">
      <stop offset="0%" stop-color="#F1E0B8"/>
      <stop offset="100%" stop-color="#B68A2C"/>
    </linearGradient>
  </defs>
  <rect width="200" height="220" rx="14" fill="#FFFFFF" stroke="#B68A2C" stroke-width="2.2"/>
  <!-- Colosseum (no coats of arms) -->
  <g fill="none" stroke="#C4B59A" stroke-width="2.2" stroke-linecap="round">
    <path d="M28 92 Q100 42 172 92"/>
    <line x1="36" y1="78" x2="164" y2="78"/>
    <rect x="44" y="58" width="12" height="24" rx="2" fill="#EDE6D8" stroke="#C4B59A"/>
    <rect x="62" y="58" width="12" height="24" rx="2" fill="#EDE6D8" stroke="#C4B59A"/>
    <rect x="80" y="58" width="12" height="24" rx="2" fill="#EDE6D8" stroke="#C4B59A"/>
    <rect x="98" y="58" width="12" height="24" rx="2" fill="#EDE6D8" stroke="#C4B59A"/>
    <rect x="116" y="58" width="12" height="24" rx="2" fill="#EDE6D8" stroke="#C4B59A"/>
    <rect x="134" y="58" width="12" height="24" rx="2" fill="#EDE6D8" stroke="#C4B59A"/>
    <line x1="40" y1="52" x2="56" y2="52"/>
    <line x1="58" y1="52" x2="74" y2="52"/>
    <line x1="76" y1="52" x2="92" y2="52"/>
    <line x1="94" y1="52" x2="110" y2="52"/>
    <line x1="112" y1="52" x2="128" y2="52"/>
    <line x1="130" y1="52" x2="146" y2="52"/>
  </g>
  <!-- ASCAI wordmark -->
  <text x="38" y="128" font-family="Arial, Helvetica, sans-serif" font-size="28" font-weight="700" fill="#007A3D">A</text>
  <text x="68" y="128" font-family="Arial, Helvetica, sans-serif" font-size="28" font-weight="700" fill="#CE1126">S</text>
  <text x="98" y="128" font-family="Arial, Helvetica, sans-serif" font-size="28" font-weight="700" fill="#CE1126">C</text>
  <text x="128" y="128" font-family="Arial, Helvetica, sans-serif" font-size="28" font-weight="700" fill="#FCD116">A</text>
  <text x="158" y="128" font-family="Arial, Helvetica, sans-serif" font-size="28" font-weight="700" fill="#FCD116">I</text>
  <!-- Gold banner -->
  <rect x="14" y="148" width="172" height="58" rx="8" fill="url(#goldGrad)" stroke="#B68A2C" stroke-width="1.4"/>
  <text x="100" y="168" text-anchor="middle" font-family="Arial, Helvetica, sans-serif" font-size="9.5" font-weight="700" fill="#222222">ASSOCIAZIONE STUDENTI</text>
  <text x="100" y="182" text-anchor="middle" font-family="Arial, Helvetica, sans-serif" font-size="9.5" font-weight="700" fill="#222222">CAMERUNESI DEL LAZIO</text>
</svg>
